<svg xmlns:xlink="http://www.w3.org/1999/xlink" id="SvgjsSvg1055" width="300" height="148" xmlns="http://www.w3.org/2000/svg" version="1.1" xlink="http://www.w3.org/1999/xlink" xmlns:svgjs="http://svgjs.com/svgjs" preserveAspectRatio="xMidYMid meet" viewBox="0 -4.1330446265419596e-7 183.13992309570312 147.00001525878906" overflow="visible"><defs id="SvgjsDefs1056"></defs><g id="SvgjsG1057" transform="scale(0.3467048824556272)" opacity="1"><g id="SvgjsG1058" class="0_i9JYoUJr" transform="translate(74.05506279739542, -19.00599408277103) scale(3.8011988165542054)" light-content="false" non-strokable="false" fill="#3D79FA"><path d="M24.777 38.979h-6.758A2.021 2.021 0 0 0 15.998 41v41.355c0 1.116.905 2.021 2.021 2.021h40.753a2.021 2.021 0 0 0 2.021-2.021V41a2.021 2.021 0 0 0-2.021-2.021H43.326V28.354H62.77a8.648 8.648 0 0 1 8.648 8.648v49.351a8.648 8.648 0 0 1-8.648 8.648H14.021a8.648 8.648 0 0 1-8.648-8.648V37.002a8.648 8.648 0 0 1 8.648-8.648h10.756v10.625z" fill="#3D79FA"></path><path d="M75.223 61.021h6.758A2.021 2.021 0 0 0 84.002 59V17.646a2.021 2.021 0 0 0-2.021-2.021H41.228a2.021 2.021 0 0 0-2.021 2.021V59c0 1.116.905 2.021 2.021 2.021h15.446v10.625H37.23a8.648 8.648 0 0 1-8.648-8.648v-49.35A8.648 8.648 0 0 1 37.23 5h48.749a8.648 8.648 0 0 1 8.648 8.648v49.351a8.648 8.648 0 0 1-8.648 8.648H75.223V61.021zM24.777 28.354v10.625h-6.758" fill="#3D79FA"></path></g><g id="SvgjsG1059" class="text" transform="translate(263.0299987792969, 423.9917226695949) scale(1)" light-content="false" fill="#3B3B3B"><path d="M-263.03 0L-250.31 0L-250.31 -38.88L-263.03 -38.88ZM-248.26 -31.11L-238.86 -31.11L-238.86 -17.78L-248.26 -17.78L-248.26 -9.99L-233.73 -9.99L-225.97 -17.78L-225.97 -31.11L-233.73 -38.88L-248.26 -38.88Z M-189.73 -38.88L-189.73 -23.58L-199.25 -23.58L-199.25 -15.79L-189.64 -15.79L-189.64 0L-176.67 0L-176.67 -38.88ZM-201.3 0L-201.3 -38.88L-214.25 -38.88L-214.25 0Z M-151.77 -7.91L-151.77 -31L-146.91 -31L-146.91 -38.88L-156.87 -38.88L-164.75 -31.11L-164.75 -7.76L-156.87 0L-146.91 0L-146.91 -7.91ZM-139.9 -31L-139.9 -7.91L-144.86 -7.91L-144.86 0L-134.81 0L-126.96 -7.76L-126.96 -31.11L-134.81 -38.88L-144.86 -38.88L-144.86 -31Z M-106.75 -28.39L-106.75 0L-93.27 0L-93.27 -28.39ZM-116.88 -38.88L-116.88 -30.41L-83.13 -30.41L-83.13 -38.88Z M-60.11 -7.91L-60.11 -31L-55.25 -31L-55.25 -38.88L-65.21 -38.88L-73.09 -31.11L-73.09 -7.76L-65.21 0L-55.25 0L-55.25 -7.91ZM-48.25 -31L-48.25 -7.91L-53.2 -7.91L-53.2 0L-43.15 0L-35.3 -7.76L-35.3 -31.11L-43.15 -38.88L-53.2 -38.88L-53.2 -31Z M-23.29 -38.88L-0.23 0L9.11 -16.08L9.11 -35.65L0.91 -21.59L-9.52 -38.88ZM11.02 0L23.96 0L23.96 -38.88L11.02 -38.88ZM-23.32 0L-11.22 0L-11.22 -14.97L-23.32 -35.27Z M62.34 -4.25L63.98 0L77.07 0L61.58 -38.88L48.95 -38.88L59.35 -11.95L52.32 -11.95L49.62 -4.25ZM46.17 0L53.29 -21.68L47.54 -37.12L33.66 0Z M110.79 0L116 0L123.77 -7.76L123.77 -17.29L116.24 -25.08L98.37 -25.08L98.37 -38.88L93.97 -38.88L86.18 -31.11L86.18 -22.35L93.97 -14.56L110.79 -14.56ZM100.42 -31.87L110.79 -31.87L110.79 -27.98L122.71 -27.98L122.71 -32.11L115.97 -38.88L100.42 -38.88ZM86.18 -11.66L86.18 -7.76L92.71 0L108.74 0L108.74 -7.03L99.13 -7.03L99.13 -11.66Z M144.27 -28.39L144.27 0L157.75 0L157.75 -28.39ZM134.13 -38.88L134.13 -30.41L167.88 -30.41L167.88 -38.88Z M191.78 -15.97L204.18 -15.97L204.18 -23.47L191.78 -23.47L191.78 -38.88L178.83 -38.88L178.83 0L191.78 0ZM193.83 -31.35L201.89 -31.35L201.89 -27.63L214.08 -27.63L214.08 -38.88L193.83 -38.88ZM193.83 0L214.08 0L214.08 -11.66L201.13 -11.66L201.13 -7.76L193.83 -7.76Z M226.29 0L239.24 0L239.24 -38.88L226.29 -38.88ZM241.29 -31.11L251.02 -31.11L251.02 -19.19L241.29 -19.19L241.29 -11.66L245.8 -11.66L245.33 -12.69L257.49 -14.3L257.9 -13.48L263.88 -19.45L263.88 -31.11L256.08 -38.88L241.29 -38.88ZM265.2 0L257.9 -13.48L256.08 -11.66L245.8 -11.66L251.37 0Z" fill="#3B3B3B"></path></g></g></svg>