<svg xmlns:xlink="http://www.w3.org/1999/xlink" id="SvgjsSvg1093" width="300" height="148" xmlns="http://www.w3.org/2000/svg" version="1.1" xlink="http://www.w3.org/1999/xlink" xmlns:svgjs="http://svgjs.com/svgjs" preserveAspectRatio="xMidYMid meet" viewBox="0 0 189.75074768066406 146.99998474121094" overflow="visible"><defs id="SvgjsDefs1094"><linearGradient id="SvgjsLinearGradientRow3vClNp_" gradientUnits="userSpaceOnUse" x1="13.333499908447276" y1="86.66650009155273" x2="86.66650009155273" y2="13.333499908447262"><stop id="SvgjsStop1097" stop-color="#3966df" offset="0.05"></stop><stop id="SvgjsStop1098" stop-color="#153384" offset="0.95"></stop></linearGradient><linearGradient id="SvgjsLinearGradientRow3vClNp_" gradientUnits="userSpaceOnUse" x1="13.333499908447276" y1="86.66650009155273" x2="86.66650009155273" y2="13.333499908447262"><stop id="SvgjsStop1097" stop-color="#3966df" offset="0.05"></stop><stop id="SvgjsStop1098" stop-color="#153384" offset="0.95"></stop></linearGradient><linearGradient id="SvgjsLinearGradientRow3vClNp_" gradientUnits="userSpaceOnUse" x1="13.333499908447276" y1="86.66650009155273" x2="86.66650009155273" y2="13.333499908447262"><stop id="SvgjsStop1097" stop-color="#3966df" offset="0.05"></stop><stop id="SvgjsStop1098" stop-color="#153384" offset="0.95"></stop></linearGradient><linearGradient id="SvgjsLinearGradientRow3vClNp_" gradientUnits="userSpaceOnUse" x1="13.333499908447276" y1="86.66650009155273" x2="86.66650009155273" y2="13.333499908447262"><stop id="SvgjsStop1097" stop-color="#3966df" offset="0.05"></stop><stop id="SvgjsStop1098" stop-color="#153384" offset="0.95"></stop></linearGradient><linearGradient id="SvgjsLinearGradientRow3vClNp_" gradientUnits="userSpaceOnUse" x1="13.333499908447276" y1="86.66650009155273" x2="86.66650009155273" y2="13.333499908447262"><stop id="SvgjsStop1097" stop-color="#3966df" offset="0.05"></stop><stop id="SvgjsStop1098" stop-color="#153384" offset="0.95"></stop></linearGradient></defs><g id="SvgjsG1095" transform="scale(0.5683883223678761)" opacity="1"><g id="SvgjsG1099" class="pbb1zzOWJ" transform="translate(41.72874877518384, -25.038249694800868) scale(2.5038250244963236)" light-content="false" non-strokable="false" fill="url(&quot;#SvgjsLinearGradientRow3vClNp_&quot;)"><path d="M16.667 43.33C16.667 69.104 37.559 90 63.333 90v-6.667c-22.093 0-40-17.91-40-40.003h-6.666z" fill="url(&quot;#SvgjsLinearGradientRow3vClNp_&quot;)"></path><path d="M63.333 16.667c-14.729 0-26.666 11.94-26.666 26.664C36.667 58.06 48.604 70 63.333 70v6.667C44.922 76.667 30 61.741 30 43.33 30 24.922 44.922 10 63.333 10v6.667z" fill="url(&quot;#SvgjsLinearGradientRow3vClNp_&quot;)"></path><path d="M63.333 43.333v20c-11.048 0-20-8.955-20-20.003 0-11.045 8.952-19.997 20-19.997 11.049 0 20 8.952 20 19.997l-20 .003z" fill="url(&quot;#SvgjsLinearGradientRow3vClNp_&quot;)"></path></g><g id="SvgjsG1100" class="text" transform="translate(165.47999572753906, 258.08600374667617) scale(1)" light-content="false" fill="#363636"><path d="M-144.48 -27.93C-146.32 -29.55 -148.96 -30.36 -152.4 -30.36L-165.48 -30.3L-165.18 -9L-165.48 0L-157.92 0L-158.22 -9.3L-155.16 -9.3C-151.08 -9.3 -147.82 -10.36 -145.38 -12.48C-142.94 -14.6 -141.72 -17.42 -141.72 -20.94C-141.72 -23.98 -142.64 -26.31 -144.48 -27.93ZM-150.66 -16.68C-151.34 -15.8 -152.38 -15.14 -153.78 -14.7L-158.1 -14.88L-157.92 -24.78L-154.92 -24.9C-153.12 -24.82 -151.79 -24.4 -150.93 -23.64C-150.07 -22.88 -149.64 -21.74 -149.64 -20.22C-149.64 -18.74 -149.98 -17.56 -150.66 -16.68Z M-108.66 -9.72L-108.24 -30.3L-115.92 -30.3L-115.74 -18.24L-121.98 -18.18L-128.4 -18.3L-128.16 -30.3L-135.84 -30.3L-135.54 -9L-135.84 0L-128.28 0L-128.58 -9.72L-128.52 -11.88L-122.46 -12L-115.68 -11.94L-115.62 -9L-115.92 0L-108.36 0Z M-76.56 -26.88C-79.04 -29.48 -82.56 -30.78 -87.12 -30.78C-92.04 -30.78 -95.84 -29.38 -98.52 -26.58C-101.2 -23.78 -102.54 -19.82 -102.54 -14.7C-102.54 -9.86 -101.3 -6.11 -98.82 -3.45C-96.34 -0.79 -92.84 0.54 -88.32 0.54C-83.4 0.54 -79.59 -0.89 -76.89 -3.75C-74.19 -6.61 -72.84 -10.64 -72.84 -15.84C-72.84 -20.6 -74.08 -24.28 -76.56 -26.88ZM-93.09 -22.65C-92.03 -23.99 -90.26 -24.66 -87.78 -24.66C-86.02 -24.66 -84.64 -24.34 -83.64 -23.7C-82.64 -23.06 -81.9 -21.99 -81.42 -20.49C-80.94 -18.99 -80.7 -16.92 -80.7 -14.28C-80.7 -10.96 -81.23 -8.64 -82.29 -7.32C-83.35 -6 -85.14 -5.34 -87.66 -5.34C-89.38 -5.34 -90.75 -5.66 -91.77 -6.3C-92.79 -6.94 -93.53 -8.01 -93.99 -9.51C-94.45 -11.01 -94.68 -13.08 -94.68 -15.72C-94.68 -19 -94.15 -21.31 -93.09 -22.65Z M-47.4 -29.7L-47.82 -30.3L-70.98 -30.3L-71.4 -24.54L-70.92 -23.94L-64.68 -24.36L-62.94 -24.36L-62.82 -9L-63.12 0L-55.62 0L-55.86 -9.72L-55.68 -24.36L-53.94 -24.36L-47.82 -23.94Z M-19.92 -26.88C-22.4 -29.48 -25.92 -30.78 -30.48 -30.78C-35.4 -30.78 -39.2 -29.38 -41.88 -26.58C-44.56 -23.78 -45.9 -19.82 -45.9 -14.7C-45.9 -9.86 -44.66 -6.11 -42.18 -3.45C-39.7 -0.79 -36.2 0.54 -31.68 0.54C-26.76 0.54 -22.95 -0.89 -20.25 -3.75C-17.55 -6.61 -16.2 -10.64 -16.2 -15.84C-16.2 -20.6 -17.44 -24.28 -19.92 -26.88ZM-36.45 -22.65C-35.39 -23.99 -33.62 -24.66 -31.14 -24.66C-29.38 -24.66 -28 -24.34 -27 -23.7C-26 -23.06 -25.26 -21.99 -24.78 -20.49C-24.3 -18.99 -24.06 -16.92 -24.06 -14.28C-24.06 -10.96 -24.59 -8.64 -25.65 -7.32C-26.71 -6 -28.5 -5.34 -31.02 -5.34C-32.74 -5.34 -34.11 -5.66 -35.13 -6.3C-36.15 -6.94 -36.89 -8.01 -37.35 -9.51C-37.81 -11.01 -38.04 -13.08 -38.04 -15.72C-38.04 -19 -37.51 -21.31 -36.45 -22.65Z M24.12 0L21.3 -30.3L12.6 -30.3L11.28 -25.8L6.54 -13.02L6.06 -13.02L1.68 -25.86L0.48 -30.3L-8.4 -30.3L-11.64 0L-5.22 0L-4.56 -9.9L-3.48 -19.08L-3 -19.08L2.94 -3L8.76 -3L15.42 -19.08L15.9 -19.08L16.92 -9.18L17.34 0Z M57.12 0L47.46 -30.3L38.52 -30.3L27.9 0L35.28 0L36.18 -4.8L36.6 -6.06L42 -6.18L48.12 -6.12L48.66 -4.38L49.5 0ZM46.5 -11.82L42.48 -11.76L38.58 -11.82L42.6 -23.4L43.08 -23.4Z M82.02 -29.22C79.38 -30.22 76.62 -30.72 73.74 -30.72C71.3 -30.72 69.17 -30.3 67.35 -29.46C65.53 -28.62 64.13 -27.46 63.15 -25.98C62.17 -24.5 61.68 -22.86 61.68 -21.06C61.68 -19.34 62.09 -17.9 62.91 -16.74C63.73 -15.58 64.71 -14.67 65.85 -14.01C66.99 -13.35 68.46 -12.64 70.26 -11.88C71.98 -11.2 73.25 -10.59 74.07 -10.05C74.89 -9.51 75.3 -8.8 75.3 -7.92C75.3 -7.08 74.95 -6.38 74.25 -5.82C73.55 -5.26 72.64 -4.98 71.52 -4.98C70.24 -4.98 68.78 -5.34 67.14 -6.06C65.5 -6.78 64.02 -7.74 62.7 -8.94L61.92 -8.4L60.9 -1.32C62.5 -0.68 64.15 -0.21 65.85 0.09C67.55 0.39 69.12 0.54 70.56 0.54C73.24 0.54 75.49 0.08 77.31 -0.84C79.13 -1.76 80.49 -2.97 81.39 -4.47C82.29 -5.97 82.74 -7.58 82.74 -9.3C82.74 -11.02 82.33 -12.45 81.51 -13.59C80.69 -14.73 79.71 -15.62 78.57 -16.26C77.43 -16.9 75.96 -17.6 74.16 -18.36C72.44 -19.08 71.18 -19.71 70.38 -20.25C69.58 -20.79 69.18 -21.48 69.18 -22.32C69.18 -23.08 69.5 -23.73 70.14 -24.27C70.78 -24.81 71.66 -25.08 72.78 -25.08C73.78 -25.08 74.88 -24.84 76.08 -24.36C77.28 -23.88 78.52 -23.16 79.8 -22.2L80.88 -22.5Z M109.92 -29.7L109.5 -30.3L86.34 -30.3L85.92 -24.54L86.4 -23.94L92.64 -24.36L94.38 -24.36L94.5 -9L94.2 0L101.7 0L101.46 -9.72L101.64 -24.36L103.38 -24.36L109.5 -23.94Z M136.26 -6.12L128.1 -5.88L122.82 -5.88L122.7 -9.72L122.76 -12.36L127.74 -12.36L133.44 -12.18L133.92 -17.88L133.5 -18.42L128.28 -18.24L122.88 -18.3L123 -24.42L128.64 -24.42L136.44 -24.12L136.92 -29.7L136.5 -30.3L115.44 -30.3L115.74 -9L115.44 0L136.2 0L136.74 -5.64Z M168.36 -1.74C166.04 -4.66 163.54 -8.06 160.86 -11.94C162.66 -13.02 164.06 -14.37 165.06 -15.99C166.06 -17.61 166.56 -19.36 166.56 -21.24C166.56 -24.16 165.63 -26.41 163.77 -27.99C161.91 -29.57 159.28 -30.36 155.88 -30.36L142.8 -30.3L143.1 -9L142.8 0L150.36 0L150.06 -9.72L150.06 -9.78L154.68 -9.78C155.92 -7.3 157.66 -4.12 159.9 -0.24L160.98 0.48C163.38 0.32 165.82 -0.14 168.3 -0.9ZM150.18 -15.54L150.36 -24.72L153.42 -24.84C155.22 -24.76 156.54 -24.37 157.38 -23.67C158.22 -22.97 158.64 -21.9 158.64 -20.46C158.64 -19.14 158.32 -18.06 157.68 -17.22C157.04 -16.38 156.04 -15.74 154.68 -15.3Z" fill="#363636"></path></g></g></svg>