<svg xmlns:xlink="http://www.w3.org/1999/xlink" id="SvgjsSvg1047" width="300" height="148" xmlns="http://www.w3.org/2000/svg" version="1.1" xlink="http://www.w3.org/1999/xlink" xmlns:svgjs="http://svgjs.com/svgjs" preserveAspectRatio="xMidYMid meet" viewBox="0.0000026001441710832296 -2.301010795235925e-7 300 54.77522277832031" overflow="visible"><defs id="SvgjsDefs1048"></defs><g id="SvgjsG1049" transform="scale(0.7720911266305792)" opacity="1"><g id="SvgjsG1050" class="eUOmmDTig" transform="translate(-4.235305888780988, -3.9412892311792573) scale(0.7882578462358515)" light-content="false" non-strokable="false" fill="#4D77C7"><path d="M24.777 38.979h-6.758A2.021 2.021 0 0 0 15.998 41v41.355c0 1.116.905 2.021 2.021 2.021h40.753a2.021 2.021 0 0 0 2.021-2.021V41a2.021 2.021 0 0 0-2.021-2.021H43.326V28.354H62.77a8.648 8.648 0 0 1 8.648 8.648v49.351a8.648 8.648 0 0 1-8.648 8.648H14.021a8.648 8.648 0 0 1-8.648-8.648V37.002a8.648 8.648 0 0 1 8.648-8.648h10.756v10.625z" fill="#4D77C7"></path><path d="M75.223 61.021h6.758A2.021 2.021 0 0 0 84.002 59V17.646a2.021 2.021 0 0 0-2.021-2.021H41.228a2.021 2.021 0 0 0-2.021 2.021V59c0 1.116.905 2.021 2.021 2.021h15.446v10.625H37.23a8.648 8.648 0 0 1-8.648-8.648v-49.35A8.648 8.648 0 0 1 37.23 5h48.749a8.648 8.648 0 0 1 8.648 8.648v49.351a8.648 8.648 0 0 1-8.648 8.648H75.223V61.021zM24.777 28.354v10.625h-6.758" fill="#4D77C7"></path></g><g id="SvgjsG1051" class="text" transform="translate(241.25516523902502, 57.22199816894531) scale(1)" light-content="false" fill="#4D77C7"><path d="M-139.26 -3.66L-139.26 -19.56L-135.12 -19.56C-131.16 -19.56 -128.44 -20.08 -126.96 -21.12C-126.12 -21.68 -125.46 -22.24 -124.98 -22.8C-124.5 -23.36 -124.15 -24.2 -123.93 -25.32C-123.71 -26.44 -123.58 -27.39 -123.54 -28.17C-123.5 -28.95 -123.48 -30.11 -123.48 -31.65C-123.48 -33.19 -123.54 -34.72 -123.66 -36.24C-123.7 -37.12 -123.79 -37.77 -123.93 -38.19C-124.07 -38.61 -124.27 -39.15 -124.53 -39.81C-124.79 -40.47 -125.11 -40.96 -125.49 -41.28C-125.87 -41.6 -126.34 -41.96 -126.9 -42.36C-128.42 -43.4 -131.18 -43.92 -135.18 -43.92L-144.9 -43.26L-144.9 0L-143.58 0C-141.42 0 -140.16 -0.15 -139.8 -0.45C-139.44 -0.75 -139.26 -1.82 -139.26 -3.66ZM-135.12 -24.9L-139.74 -24.9L-139.26 -26.28L-139.26 -37.08L-139.74 -38.58L-135.12 -38.58C-133.16 -38.58 -131.64 -38.26 -130.56 -37.62C-130.16 -37.38 -129.87 -36.91 -129.69 -36.21C-129.51 -35.51 -129.4 -34.89 -129.36 -34.35C-129.32 -33.81 -129.3 -32.93 -129.3 -31.71C-129.3 -30.49 -129.32 -29.6 -129.36 -29.04C-129.48 -27.32 -129.88 -26.26 -130.56 -25.86C-131.64 -25.22 -133.16 -24.9 -135.12 -24.9Z M-111.3 -3.66L-111.3 -19.2L-111.78 -20.58L-101.34 -20.58L-101.82 -19.32L-101.82 -3.66C-101.82 -1.82 -101.63 -0.75 -101.25 -0.45C-100.87 -0.15 -99.58 0 -97.38 0L-96.18 0L-96.18 -39.54C-96.18 -41.38 -96.37 -42.45 -96.75 -42.75C-97.13 -43.05 -98.38 -43.2 -100.5 -43.2L-101.82 -43.2L-101.82 -27.42L-101.64 -25.92L-111.54 -25.92L-111.3 -27.42L-111.3 -39.54C-111.3 -41.38 -111.49 -42.45 -111.87 -42.75C-112.25 -43.05 -113.5 -43.2 -115.62 -43.2L-116.88 -43.2L-116.88 0L-115.62 0C-113.5 0 -112.25 -0.15 -111.87 -0.45C-111.49 -0.75 -111.3 -1.82 -111.3 -3.66Z M-87.15 -4.74C-85.53 -1.3 -82.45 0.42 -77.91 0.42C-73.37 0.42 -70.31 -1.29 -68.73 -4.71C-67.15 -8.13 -66.36 -13.82 -66.36 -21.78C-66.36 -29.74 -67.2 -35.42 -68.88 -38.82C-70.56 -42.22 -73.57 -43.92 -77.91 -43.92C-82.25 -43.92 -85.28 -42.21 -87 -38.79C-88.72 -35.37 -89.58 -29.7 -89.58 -21.78C-89.58 -13.86 -88.77 -8.18 -87.15 -4.74ZM-83.88 -21.96C-83.88 -33.04 -81.89 -38.58 -77.91 -38.58C-73.93 -38.58 -71.94 -33.02 -71.94 -21.9C-71.94 -16.22 -72.38 -11.97 -73.26 -9.15C-74.14 -6.33 -75.69 -4.92 -77.91 -4.92C-80.13 -4.92 -81.68 -6.33 -82.56 -9.15C-83.44 -11.97 -83.88 -16.24 -83.88 -21.96Z M-42.78 -38.1L-42.78 -43.2L-62.16 -43.2L-62.16 -38.1L-54.96 -38.1L-55.38 -36.6L-55.38 0L-53.94 0C-51.78 0 -50.51 -0.15 -50.13 -0.45C-49.75 -0.75 -49.56 -1.82 -49.56 -3.66L-49.56 -36.6L-50.1 -38.1Z M-36.15 -4.74C-34.53 -1.3 -31.45 0.42 -26.91 0.42C-22.37 0.42 -19.31 -1.29 -17.73 -4.71C-16.15 -8.13 -15.36 -13.82 -15.36 -21.78C-15.36 -29.74 -16.2 -35.42 -17.88 -38.82C-19.56 -42.22 -22.57 -43.92 -26.91 -43.92C-31.25 -43.92 -34.28 -42.21 -36 -38.79C-37.72 -35.37 -38.58 -29.7 -38.58 -21.78C-38.58 -13.86 -37.77 -8.18 -36.15 -4.74ZM-32.88 -21.96C-32.88 -33.04 -30.89 -38.58 -26.91 -38.58C-22.93 -38.58 -20.94 -33.02 -20.94 -21.9C-20.94 -16.22 -21.38 -11.97 -22.26 -9.15C-23.14 -6.33 -24.69 -4.92 -26.91 -4.92C-29.13 -4.92 -30.68 -6.33 -31.56 -9.15C-32.44 -11.97 -32.88 -16.24 -32.88 -21.96Z M-4.02 -31.02L-3.84 -31.02L0.72 -20.22L2.34 -17.22L6.3 -17.22L7.92 -20.22L12.36 -30.96L12.54 -30.96L12.6 -3.66C12.6 -1.82 12.78 -0.75 13.14 -0.45C13.5 -0.15 14.76 0 16.92 0L18.24 0L18.24 -39.54C18.24 -41.38 18.05 -42.45 17.67 -42.75C17.29 -43.05 16.02 -43.2 13.86 -43.2L12.96 -43.2L4.92 -24.96L3.72 -24.96L-2.82 -39.9C-3.58 -41.54 -4.2 -42.5 -4.68 -42.78C-5.16 -43.06 -6.36 -43.2 -8.28 -43.2L-9.66 -43.2L-9.66 0L-8.34 0C-6.22 0 -4.97 -0.15 -4.59 -0.45C-4.21 -0.75 -4.02 -1.82 -4.02 -3.66Z M44.94 0L46.92 0L37.08 -43.2L31.32 -43.2C25.24 -16.48 22.2 -2.71 22.2 -1.89C22.2 -1.07 22.46 -0.55 22.98 -0.33C23.5 -0.11 24.72 0 26.64 0L28.02 0L30.48 -13.8L38.04 -13.8L40.08 -3.66C40.44 -1.86 40.83 -0.8 41.25 -0.48C41.67 -0.16 42.9 0 44.94 0ZM33.9 -32.28L34.5 -32.28L36.84 -20.7C36.84 -20.66 36.92 -20.47 37.08 -20.13C37.24 -19.79 37.34 -19.6 37.38 -19.56L31.2 -19.56L31.68 -20.58Z M50.52 -5.94L50.52 -0.84C51.24 -0.76 52.66 -0.53 54.78 -0.15C56.9 0.23 58.76 0.42 60.36 0.42C63.2 0.42 65.64 -0.14 67.68 -1.26C68.48 -1.7 69.16 -2.36 69.72 -3.24C70.28 -4.12 70.7 -4.9 70.98 -5.58C71.26 -6.26 71.47 -7.21 71.61 -8.43C71.75 -9.65 71.83 -10.61 71.85 -11.31C71.87 -12.01 71.88 -13.02 71.88 -14.34C71.88 -15.66 71.4 -17.06 70.44 -18.54C69.48 -20.02 68.46 -21.28 67.38 -22.32C66.3 -23.36 64.8 -24.64 62.88 -26.16C58.84 -29.56 56.82 -32.08 56.82 -33.72C56.82 -34.6 56.85 -35.26 56.91 -35.7C56.97 -36.14 57.16 -36.62 57.48 -37.14C58 -38.1 59.44 -38.58 61.8 -38.58L64.08 -38.16C65.2 -37.92 66.11 -37.8 66.81 -37.8C67.51 -37.8 68 -37.92 68.28 -38.16C68.88 -38.56 69.34 -39.9 69.66 -42.18L61.5 -43.92C59.74 -43.92 58.08 -43.81 56.52 -43.59C54.96 -43.37 53.5 -42.56 52.14 -41.16C51.26 -40.2 50.82 -37.6 50.82 -33.36C50.82 -30.92 51.84 -28.58 53.88 -26.34C55 -25.1 55.87 -24.19 56.49 -23.61C57.11 -23.03 58.18 -22.08 59.7 -20.76C61.22 -19.44 62.27 -18.52 62.85 -18C63.43 -17.48 64.06 -16.7 64.74 -15.66C65.42 -14.62 65.76 -13.4 65.76 -12C65.76 -10.6 65.66 -9.42 65.46 -8.46C65.3 -7.7 65.04 -7.13 64.68 -6.75C64.32 -6.37 63.79 -6.04 63.09 -5.76C62.39 -5.48 61.12 -5.34 59.28 -5.34C57.44 -5.34 54.52 -5.54 50.52 -5.94Z M94.86 -38.1L94.86 -43.2L75.48 -43.2L75.48 -38.1L82.68 -38.1L82.26 -36.6L82.26 0L83.7 0C85.86 0 87.13 -0.15 87.51 -0.45C87.89 -0.75 88.08 -1.82 88.08 -3.66L88.08 -36.6L87.54 -38.1Z M118.5 -5.34L105 -5.34L105.54 -6.84L105.54 -19.2L105.06 -20.58L117.18 -20.58L117.18 -25.92L105 -25.92L105.54 -27.42L105.54 -36.6L105 -38.1L117.9 -38.1L117.9 -43.2L99.66 -43.2L99.66 0L118.5 0Z M125.34 0C127.5 0 128.76 -0.15 129.12 -0.45C129.48 -0.75 129.66 -1.82 129.66 -3.66L129.6 -18.06L129.06 -19.56L131.88 -19.56L139.26 -3.18C139.86 -1.82 140.52 -0.95 141.24 -0.57C141.96 -0.19 143.32 0 145.32 0L147.3 0L137.76 -19.74C138.92 -19.86 139.86 -20.24 140.58 -20.88C142.22 -22.32 143.04 -25.92 143.04 -31.68L143.04 -35.16C143.04 -36.4 142.9 -37.4 142.62 -38.16L142.14 -39.84C141.9 -40.48 141.6 -40.96 141.24 -41.28C140.88 -41.6 140.44 -41.96 139.92 -42.36C138.56 -43.4 136.08 -43.92 132.48 -43.92L123.9 -43.26L123.9 0ZM132.6 -24.9L129.12 -24.9L129.6 -26.28L129.6 -37.08L129.06 -38.58L132.6 -38.58C134.16 -38.58 135.36 -38.26 136.2 -37.62C136.52 -37.38 136.76 -36.91 136.92 -36.21C137.08 -35.51 137.17 -34.89 137.19 -34.35C137.21 -33.81 137.22 -32.54 137.22 -30.54C137.22 -28.54 136.99 -27.1 136.53 -26.22C136.07 -25.34 134.76 -24.9 132.6 -24.9Z" fill="#4D77C7"></path></g></g></svg>